<svg width="202" height="202" viewBox="0 0 202 202" fill="none" xmlns="http://www.w3.org/2000/svg">
    <path d="M54.0114 51.2429C59.3371 45.9172 67.3077 42.5564 75.9204 40.4106C84.5056 38.2717 93.5477 37.3826 100.861 36.8761C118.346 35.665 139.277 38.2657 152.254 51.2429C157.435 56.4236 158.405 64.1781 158.033 72.9108C157.889 76.2981 157.549 79.7426 157.211 83.169C157.116 84.133 157.021 85.0955 156.931 86.0549C156.523 90.3849 156.208 94.6473 156.447 98.4828C156.727 102.964 157.569 107.335 158.441 111.514C158.57 112.128 158.698 112.736 158.826 113.34C159.574 116.884 160.289 120.269 160.682 123.562C161.591 131.181 160.741 138.005 154.515 144.231C148.765 149.981 139.161 155.587 128.975 159.816C118.791 164.044 108.253 166.801 100.717 167.006C84.0815 167.459 63.1217 164.133 50.7994 151.811C44.9756 145.987 44.7235 137.251 46.2593 127.347C46.8372 123.62 47.6485 119.834 48.4556 116.067C48.7129 114.867 48.9698 113.668 49.2185 112.474C50.2382 107.579 51.1204 102.763 51.2382 98.4303C51.3479 94.3973 50.8411 90.0713 50.2318 85.7447C50.0876 84.7205 49.9378 83.6974 49.7884 82.6763C49.3004 79.3424 48.8155 76.0303 48.5369 72.7738C47.8075 64.2475 48.5598 56.6944 54.0114 51.2429Z"
          stroke="url(#paint0_linear)" stroke-width="3"/>
    <path d="M102.958 32.5906C110.489 32.5906 118.502 35.8503 126.109 40.4231C133.692 44.9812 140.715 50.7464 146.244 55.5594C159.464 67.067 172.426 83.7064 172.426 102.059C172.426 109.386 167.629 115.555 161.191 121.467C158.693 123.76 156.017 125.955 153.356 128.139C152.607 128.753 151.859 129.367 151.117 129.981C147.767 132.755 144.53 135.546 141.987 138.427C139.016 141.794 136.52 145.48 134.183 149.052C133.839 149.577 133.5 150.098 133.163 150.615C131.187 153.65 129.299 156.549 127.248 159.156C122.503 165.186 117.077 169.41 108.272 169.41C100.14 169.41 89.3858 166.583 79.1928 162.371C69.0018 158.159 59.6004 152.658 54.1261 147.473C42.0435 136.03 29.574 118.858 29.574 101.432C29.574 93.1958 35.5735 86.8397 43.6624 80.9228C46.7063 78.6962 49.9568 76.5929 53.1913 74.5C54.2222 73.833 55.2514 73.167 56.2718 72.4984C60.4544 69.7579 64.4835 66.9763 67.6302 63.9962C70.5595 61.222 73.2601 57.8048 75.8886 54.3146C76.5109 53.4884 77.1284 52.659 77.7448 51.8313C79.7571 49.1288 81.7563 46.4439 83.862 43.9443C89.3752 37.3995 95.248 32.5906 102.958 32.5906Z"
          stroke="url(#paint1_linear)" stroke-width="3"/>
    <path d="M161.223 68.491C164.989 75.0136 166.172 83.5825 166.016 92.4571C165.86 101.303 164.378 110.267 162.975 117.463C159.619 134.665 151.69 154.21 135.796 163.387C129.451 167.05 121.709 165.98 113.371 163.36C110.136 162.344 106.897 161.124 103.675 159.911C102.768 159.57 101.863 159.229 100.96 158.893C96.8829 157.379 92.8472 155.971 89.0805 155.21C84.6795 154.32 80.2393 154.002 75.9768 153.763C75.3511 153.728 74.73 153.695 74.1136 153.662C70.4968 153.468 67.0422 153.282 63.7595 152.81C56.1649 151.716 49.794 149.128 45.3915 141.503C41.3257 134.461 38.3964 123.733 36.9478 112.8C35.4995 101.869 35.5634 90.976 37.3161 83.6429C41.1845 67.4577 49.8213 48.0726 64.9129 39.3595C72.0456 35.2414 80.5499 37.2591 89.7185 41.3059C93.1688 42.8287 96.6155 44.5921 100.045 46.3467C101.138 46.906 102.23 47.4643 103.319 48.0137C107.784 50.2657 112.207 52.3642 116.361 53.5993C120.228 54.7491 124.538 55.3792 128.875 55.9105C129.902 56.0363 130.929 56.1564 131.954 56.2763C135.3 56.6678 138.625 57.0567 141.843 57.6305C150.267 59.1327 157.368 61.8142 161.223 68.491Z"
          stroke="url(#paint2_linear)" stroke-width="3"/>
    <path d="M166.572 120.597C164.622 127.872 159.4 134.768 153.014 140.933C146.649 147.077 139.262 152.369 133.182 156.464C118.645 166.255 99.2179 174.469 81.4908 169.719C74.4138 167.822 69.6962 161.592 65.6524 153.843C64.0838 150.837 62.6557 147.684 61.2351 144.548C60.8354 143.666 60.4364 142.785 60.035 141.909C58.2232 137.955 56.3647 134.106 54.2399 130.904C51.7572 127.163 48.8422 123.798 45.997 120.615C45.5793 120.148 45.1637 119.685 44.7512 119.226C42.331 116.532 40.0193 113.958 38.0324 111.302C33.4357 105.158 30.7603 98.824 33.0393 90.3189C35.1439 82.4645 40.6579 72.8078 47.3647 64.0524C54.0702 55.2987 61.8177 47.6415 68.2423 43.6956C82.4224 34.9863 102.237 27.3861 119.069 31.8964C127.025 34.0281 131.611 41.4682 135.233 50.8129C136.596 54.3294 137.786 58.0135 138.971 61.6794C139.348 62.8478 139.725 64.0144 140.107 65.1731C141.672 69.9224 143.316 74.5341 145.38 78.345C147.301 81.8925 149.903 85.3855 152.594 88.8278C153.231 89.6427 153.872 90.4538 154.512 91.2634C156.602 93.9066 158.678 96.5326 160.547 99.2135C165.442 106.233 168.567 113.15 166.572 120.597Z"
          stroke="url(#paint3_linear)" stroke-width="3"/>
    <defs>
        <linearGradient id="paint0_linear" x1="98.8669" y1="202" x2="94.6048" y2="0.180096"
                        gradientUnits="userSpaceOnUse">
            <stop stop-color="#3FD11A"/>
            <stop offset="1" stop-color="#4115BF"/>
        </linearGradient>
        <linearGradient id="paint1_linear" x1="28.074" y1="170.91" x2="167.768" y2="25.1876"
                        gradientUnits="userSpaceOnUse">
            <stop stop-color="#3FD11A"/>
            <stop offset="1" stop-color="#4115BF"/>
        </linearGradient>
        <linearGradient id="paint2_linear" x1="3.99341" y1="72.7993" x2="200.04" y2="120.917"
                        gradientUnits="userSpaceOnUse">
            <stop stop-color="#3FD11A"/>
            <stop offset="1" stop-color="#4115BF"/>
        </linearGradient>
        <linearGradient id="paint3_linear" x1="52.3472" y1="12.4653" x2="156.948" y2="185.115"
                        gradientUnits="userSpaceOnUse">
            <stop stop-color="#3FD11A"/>
            <stop offset="1" stop-color="#4115BF"/>
        </linearGradient>
    </defs>
</svg>
